{"title":"Two Friends (1987) - Jane Campion.avi","uid":9700541,"size":726976512,"categoryP":"video","categoryS":"movies","magnet":"?xt=urn:btih:fbd6a405905d73fbe87f0c2fc8c06047c6601579&amp;dn=Two+Friends+%281987%29+-+Jane+Campion.avi&amp;tr=udp%3A%2F%2Ftracker.openbittorrent.com%3A80&amp;tr=udp%3A%2F%2Fopen.demonii.com%3A1337&amp;tr=udp%3A%2F%2Ftracker.coppersurfer.tk%3A6969&amp;tr=udp%3A%2F%2Fexodus.desync.com%3A6969","seeders":0,"leechers":1,"uploader":"Aaaameida","files":-1,"time":1393991975,"description":"Two girls, at 15; Louise, in a prestigious girls' high school, and Kelly, who was admitted but forbidden by her father to attend. This is the end of their friendship, and from here the film progresses in a backwards time line to a final freeze frame of the girls at the peak of their closeness.\n- Written by Bruce Cameron &lt;&lt;a class=&quot;__cf_email__&quot; href=&quot;/cdn-cgi/l/email-protection&quot; data-cfemail=&quot;abcfdec6cad9ced8dfebc6c2cfc8c4cad8df85c8c4c6&quot;&gt;[email&amp;#160;protected]&lt;/a&gt;&lt;script cf-hash='f9e31' type=&quot;text/javascript&quot;&gt;\n/* &lt;![CDATA[ */!function(){try{var t=&quot;currentScript&quot;in document?document.currentScript:function(){for(var t=document.getElementsByTagName(&quot;script&quot;),e=t.length;e--;)if(t[e].getAttribute(&quot;cf-hash&quot;))return t[e]}();if(t&amp;&amp;t.previousSibling){var e,r,n,i,c=t.previousSibling,a=c.getAttribute(&quot;data-cfemail&quot;);if(a){for(e=&quot;&quot;,r=parseInt(a.substr(0,2),16),n=2;a.length-n;n+=2)i=parseInt(a.substr(n,2),16)^r,e+=String.fromCharCode(i);e=document.createTextNode(e),c.parentNode.replaceChild(e,c)}}}catch(u){}}();/* ]]&gt; */&lt;/script&gt;&gt;\n\nLanguage: English\n &lt;a href=&quot;\nhttp://www.imdb.com/title/tt0092123&quot; rel=&quot;nofollow&quot; target=&quot;_NEW&quot;&gt;\nhttp://www.imdb.com/title/tt0092123&lt;/a&gt;\n\n\n\n      Format : AVI\n      Format/Info : Audio Video Interleave\n      File size : 693 MiB\n      Duration : 1h 18mn\n      Overall bit rate : 1 232 Kbps\n      Writing application : VirtualDubMod 1.5.10.2 (build 2540/release)\n      Writing library : VirtualDubMod build 2540/release\n   Video #0\n      ID : 0\n      Format : MPEG-4 Visual\n      Format settings, BVOP : No\n      Format settings, QPel : No\n      Format settings, GMC : No warppoints\n      Format settings, Matrix : Default (H.263)\n      Codec ID : DX50\n      Codec ID/Hint : DivX 5\n      Duration : 1h 18mn\n      Bit rate : 1 111 Kbps\n      Width : 704 pixels\n      Height : 400 pixels\n      Display aspect ratio : 16:9\n      Frame rate : 23.976 fps\n      Resolution : 24 bits\n      Colorimetry : 4:2:0\n      Scan type : Progressive\n      Bits/(Pixel*Frame) : 0.165\n      Stream size : 625 MiB (90%)\n      Writing library : DivX 5.2.1 (WaffleDay) (UTC 2004-09-08)\n   Audio #1\n      ID : 1\n      Format : MPEG Audio\n      Format version : Version 1\n      Format profile : Layer 3\n      Codec ID : 55\n      Codec ID/Hint : MP3\n      Duration : 1h 18mn\n      Bit rate mode : Variable\n      Bit rate : 108 Kbps\n      Nominal bit rate : 128 Kbps\n      Channel(s) : 2 channels\n      Sampling rate : 48.0 KHz\n      Resolution : 16 bits\n      Stream size : 60.8 MiB (9%)\n      Alignment : Aligned on interleaves\n      Interleave, duration : 24 ms (0.58 video frame)\n      Interleave, preload duration : 170 ms\n      Writing library : LAME3.90.\n      Encoding settings : -m j -V 4 -q 2 -lowpass 17.6 --abr 128","torrent":{"xt":"urn:btih:fbd6a405905d73fbe87f0c2fc8c06047c6601579","amp;dn":"Two+Friends+%281987%29+-+Jane+Campion.avi","amp;tr":["udp%3A%2F%2Ftracker.openbittorrent.com%3A80","udp%3A%2F%2Fopen.demonii.com%3A1337","udp%3A%2F%2Ftracker.coppersurfer.tk%3A6969","udp%3A%2F%2Fexodus.desync.com%3A6969"],"infoHash":"fbd6a405905d73fbe87f0c2fc8c06047c6601579","infoHashBuffer":{"type":"Buffer","data":[251,214,164,5,144,93,115,251,232,127,12,47,200,192,96,71,198,96,21,121]},"announce":[],"urlList":[]}}